<svg xmlns="http://www.w3.org/2000/svg" width="200" height="120" viewBox="0 0 200 120" aria-hidden="true"><g transform="translate(9 10)"><rect stroke="#E9E4E1" stroke-width="2" fill="#fff" x="11" y="0" width="160" height="100" rx="12"/><rect fill="#F3EFED" x="11" y="0" width="160" height="22" rx="11"/><rect fill="#F3EFED" x="11" y="12" width="160" height="10"/><circle fill="#D64937" cx="25" cy="11" r="3.5"/><circle fill="#D99A2B" cx="37" cy="11" r="3.5"/><circle fill="#2F8F5B" cx="49" cy="11" r="3.5"/><rect fill="#E9E4E1" x="27" y="36" width="70" height="8" rx="4"/><rect fill="#F3EFED" x="27" y="52" width="110" height="6" rx="3"/><rect fill="#F3EFED" x="27" y="64" width="92" height="6" rx="3"/><path d="M27,90 L51,82 L75,86 L99,74 L123,78 L147,66" stroke="#E3DCD8" stroke-width="3" stroke-linecap="round" stroke-dasharray="5" fill="none"/><circle fill-opacity=".12" fill="#D64937" cx="147" cy="66" r="16"/><circle fill-opacity=".22" fill="#D64937" cx="147" cy="66" r="9"/><circle fill="#D64937" cx="147" cy="66" r="4.5"/><polygon fill="#D99A2B" points="159 20 162 27 169 30 162 33 159 40 156 33 149 30 156 27"/><circle fill-opacity=".5" fill="#0057AE" cx="3" cy="50" r="3"/><circle fill-opacity=".6" fill="#644A9B" cx="181" cy="88" r="2.5"/></g></svg>
