<svg xmlns="http://www.w3.org/2000/svg" width="200" height="120" viewBox="0 0 200 120" aria-hidden="true"><g transform="translate(9 10)"><rect stroke="#3A3330" stroke-width="2" fill="#211D1B" x="11" y="0" width="160" height="100" rx="12"/><rect fill="#2A2522" x="11" y="0" width="160" height="22" rx="11"/><rect fill="#2A2522" x="11" y="12" width="160" height="10"/><circle fill="#E5604E" cx="25" cy="11" r="3.5"/><circle fill="#D99A2B" cx="37" cy="11" r="3.5"/><circle fill="#57B886" cx="49" cy="11" r="3.5"/><rect x="27" y="32" width="58" height="12" rx="6" fill="#3A221D" stroke="#6B3329"/><circle cx="35" cy="38" r="2.5" fill="#E5604E"/><rect x="41" y="36" width="36" height="4" rx="2" fill="#8F4538"/><path d="M33,52 L83,52 L64,70 L64,80 L52,84 L52,70 Z" fill="#2A2522" stroke="#4A413D" stroke-width="2.5" stroke-linejoin="round"/><g fill="#211D1B" stroke="#4A413D" stroke-width="1.5" stroke-dasharray="3 2"><rect x="101" y="36" width="54" height="8" rx="4"/><rect x="101" y="52" width="46" height="8" rx="4"/><rect x="101" y="68" width="50" height="8" rx="4"/></g><circle fill-opacity=".12" fill="#E5604E" cx="58" cy="85" r="12"/><circle fill-opacity=".22" fill="#E5604E" cx="58" cy="85" r="7"/><circle fill="#E5604E" cx="58" cy="85" r="4"/><polygon fill="#D99A2B" points="166 1 169 8 176 11 169 14 166 21 163 14 156 11 163 8"/><circle fill-opacity=".5" fill="#6AA5EC" cx="3" cy="50" r="3"/><circle fill-opacity=".6" fill="#A690E0" cx="181" cy="88" r="2.5"/></g></svg>
